<svg width="17" height="22" viewBox="0 0 17 22" fill="none" xmlns="http://www.w3.org/2000/svg">
<path d="M15.8345 11.5547L1.7025 20.976C1.60211 21.0428 1.48548 21.0811 1.36503 21.0869C1.24457 21.0927 1.12481 21.0656 1.0185 21.0087C0.912191 20.9518 0.823309 20.8671 0.761322 20.7637C0.699335 20.6602 0.666566 20.5419 0.666504 20.4213V1.57868C0.666566 1.45809 0.699335 1.33977 0.761322 1.23633C0.823309 1.1329 0.912191 1.04821 1.0185 0.991288C1.12481 0.93437 1.24457 0.907353 1.36503 0.913115C1.48548 0.918877 1.60211 0.957203 1.7025 1.02401L15.8345 10.4453C15.9258 10.5062 16.0007 10.5887 16.0525 10.6855C16.1042 10.7822 16.1313 10.8903 16.1313 11C16.1313 11.1098 16.1042 11.2178 16.0525 11.3146C16.0007 11.4113 15.9258 11.4938 15.8345 11.5547Z" fill="#29ABE2"/>
</svg>
