<svg width="180" height="35" viewBox="0 0 180 35" fill="none" xmlns="http://www.w3.org/2000/svg">
<g clip-path="url(#clip0_295_2)">
<path d="M43.5493 11.9761H45.7267V20.6858H52.259V22.8632H43.5493V11.9761Z" fill="#1A1A1A"/>
<path d="M63.5092 13.0648V21.7745H61.3318V13.0648H63.5092Z" fill="#1A1A1A"/>
<path d="M72.9451 22.8632V11.9761H83.8322V22.8632H72.9451ZM81.6547 20.6858V14.1535H75.1225V20.6858H81.6547Z" fill="#1A1A1A"/>
<path d="M56.9771 11.9761V14.1535H67.8642V11.9761H56.9771ZM56.9771 20.6858V22.8632H67.8642V20.6858H56.9771Z" fill="#1A1A1A"/>
<path d="M88.9131 22.8632V11.9761H91.0905L97.6228 19.6987V11.9761H99.8002V22.8632H97.6228L91.0905 15.3765V22.8632H88.9131Z" fill="#1A1A1A"/>
<path d="M104.881 11.9761H115.768V14.1535H107.059V20.6858H115.768V22.8632H104.881V11.9761ZM113.591 18.5083H110.325V16.3309H113.591V18.5083ZM113.591 20.6858V16.3309H115.768V20.6858H113.591Z" fill="#1A1A1A"/>
<path d="M120.849 22.8632V11.9761H131.736V18.5083H123.027V22.8632H120.849ZM123.027 14.1535V16.3309H129.559V14.1535H123.027ZM128.47 18.5083L132.462 22.8632H129.559L125.567 18.5083H128.47Z" fill="#1A1A1A"/>
<path d="M136.817 22.8632V11.9761H147.704V22.8632H136.817ZM145.527 20.6858V14.1535H138.995V20.6858H145.527Z" fill="#1A1A1A"/>
<path d="M154.963 11.9761V20.6858H161.495V11.9761H163.672V22.8632H152.785V11.9761H154.963Z" fill="#1A1A1A"/>
<path d="M169.116 22.8632V11.9761H180.003V18.5083H171.294V22.8632H169.116ZM171.294 14.1535V16.3309H177.826V14.1535H171.294Z" fill="#1A1A1A"/>
<path d="M29.3952 9.79839L30.4839 8.70968V6.53226L28.3064 4.35484H23.9516L19.5968 0H15.2419L10.8871 4.35484H6.53226L4.35484 6.53226V8.70968L5.44355 9.79839L0 15.2419V21.7742L13.0645 34.8387H21.7742L34.8387 21.7742V15.2419L29.3952 9.79839ZM21.4113 28.3064L19.2339 30.4839H15.6048L13.4274 28.3064L17.4194 24.3145L21.4113 28.3064ZM26.129 17.4194V21.7742L21.7742 26.129L17.4194 21.7742L13.0645 26.129L8.70968 21.7742V17.4194L6.53226 15.2419L15.2419 6.53226H19.5968L28.3064 15.2419L26.129 17.4194Z" fill="#1A1A1A"/>
<path d="M23.9517 13.0645V15.2419H21.7743V19.5968L17.4195 23.9516L13.0646 19.5968V15.2419H10.8872V13.0645H15.242V19.2339H19.5969V13.0645H23.9517Z" fill="#1A1A1A"/>
</g>
<defs>
<clipPath id="clip0_295_2">
<rect width="180" height="34.8394" fill="white"/>
</clipPath>
</defs>
</svg>
