<svg width="125" height="30" viewBox="0 0 125 30" fill="none" xmlns="http://www.w3.org/2000/svg">
<path fill-rule="evenodd" clip-rule="evenodd" d="M95.0829 10.067C95.0829 8.05539 96.0989 7.53919 97.6895 7.90978V13.7522H95.0829V10.067ZM87.8921 7.37047V28.4034C87.8921 28.6105 87.9547 28.673 88.1618 28.673H95.0829V18.0667H97.6895V28.673H104.88V3.32568H91.0381C89.8487 3.32568 89.1696 3.83109 88.6804 4.56337C88.2184 5.25495 87.8921 6.26234 87.8921 7.37047V7.37047ZM41.9612 13.6623V7.73C43.3708 7.73 43.8812 7.5051 44.2294 8.87745C44.6877 10.6834 44.709 14.3025 41.9612 13.6623ZM34.7705 28.4034C34.7705 28.6105 34.8331 28.673 35.0402 28.673H41.9612V18.0667C42.9727 18.0667 44.5679 17.4626 44.5679 20.0441V28.4932H51.8485V18.2464C51.8485 16.981 51.2165 15.8342 49.961 15.7297C50.3066 15.4895 51.6687 14.9552 51.6687 13.5725V7.73001C51.6687 6.59043 51.0422 5.29633 50.4793 4.69488C49.7801 3.94773 48.9415 3.32569 47.5341 3.32569H34.7705V28.4034V28.4034ZM68.3872 28.673H75.578V18.0667H78.1846V28.673H85.1057C85.3128 28.673 85.3754 28.6105 85.3754 28.4034V3.32568H78.1846V13.7522H75.578V3.32568H68.3872V28.673ZM120.7 8.44907C119.814 8.44907 118.812 7.5981 118.812 6.83116C118.812 6.03973 118.728 5.67141 119.415 5.00679C120.557 3.90217 122.767 4.62629 122.767 6.47162C122.767 7.60348 121.85 8.44907 120.7 8.44907ZM107.397 23.3698C107.397 25.3053 107.951 27.2372 109.708 28.0702C111.907 29.113 119.876 29.1499 122.11 28.106C123.668 27.3782 124.385 25.706 124.385 23.4597V3.32569H117.194V22.5609C117.194 24.2023 116.651 24.5383 115.666 24.5383C114.868 24.5383 114.588 23.3949 114.588 22.5609V3.32569H107.397V23.3698H107.397ZM54.2754 28.673L66.1401 28.5831V24.2687H61.4661V18.0667H66.1401V13.7522H61.4661V7.64011H66.1401V3.32569H54.2754V28.673Z" fill="#5A5E5E"/>
<path fill-rule="evenodd" clip-rule="evenodd" d="M121.06 6.56188C121.239 6.90143 121.513 7.18109 121.599 7.55059C121.032 7.50343 121.175 7.03459 120.831 6.70089C120.614 6.49115 120.793 6.56188 120.34 6.56188V7.55059H119.981V5.30349C120.635 5.30349 121.689 5.14996 121.689 5.93267C121.689 6.3784 121.478 6.52707 121.06 6.56188ZM119.082 6.29223C119.082 7.47889 119.76 8.26148 120.779 8.23905C123.034 8.18942 123.04 4.67432 120.7 4.67432C119.889 4.67432 119.082 5.45515 119.082 6.29223Z" fill="#5A5E5E"/>
<path fill-rule="evenodd" clip-rule="evenodd" d="M120.34 6.38171H120.79C121.571 6.38171 121.517 5.57275 121.059 5.57275H120.34V6.38171Z" fill="#5A5E5E"/>
<path fill-rule="evenodd" clip-rule="evenodd" d="M6.99658 24.5386C7.08502 24.8698 7.03592 24.7222 7.26055 24.9038L8.48838 25.8332C8.80146 26.0401 9.03248 26.222 9.3631 26.3967C12.8743 28.2511 16.7379 28.7925 20.4503 26.9366C21.5207 26.4015 23.2068 25.3154 23.9717 24.3459C24.094 24.1909 24.18 24.1209 24.3231 23.9782C25.9188 22.3867 26.9509 19.3608 26.9509 16.8984C26.2429 17.3726 25.039 18.4174 24.0209 19.0919L20.8562 21.0505C20.1399 21.4845 19.2777 21.8578 18.4993 22.1991C15.6192 23.462 13.5031 23.9588 10.3498 24.3864C9.30368 24.5282 8.25807 24.5386 6.99658 24.5386V24.5386Z" fill="#E9128B"/>
<path fill-rule="evenodd" clip-rule="evenodd" d="M0.614746 13.5728C0.614746 16.118 0.975631 18.1898 2.2851 20.1718C2.56669 20.598 3.45759 21.8108 3.82747 22.1349C4.26726 22.5202 5.45662 23.5324 5.91789 23.6398C5.5461 22.044 5.46849 18.887 5.46849 17.0783C5.46849 13.3241 6.22784 10.4163 7.32242 7.33716C7.52215 6.77528 7.75717 6.20324 8.01479 5.69254C8.37177 4.98481 8.29011 4.9921 8.79022 4.13096C9.0739 3.64245 9.33893 3.10627 9.60315 2.60693C8.40316 2.88649 7.21284 3.51294 6.18145 4.12885C5.89947 4.29724 5.71625 4.43966 5.43145 4.63723L4.05507 5.77762C3.7948 5.99753 3.72647 6.19119 3.469 6.44993C2.13699 7.78852 0.614746 10.9174 0.614746 13.5728V13.5728Z" fill="#A4CC3A"/>
<path fill-rule="evenodd" clip-rule="evenodd" d="M11.311 1.34827V1.52802C11.8533 1.57315 13.3912 2.31446 13.9697 2.55462C14.7695 2.88661 15.728 3.39184 16.4948 3.80465C18.7467 5.01696 21.1319 6.71985 22.9286 8.51652C24.4654 10.0533 24.2324 9.79445 25.6235 11.4843C25.9257 11.8515 26.1441 12.1912 26.4253 12.5701L27.9396 14.8309C28.0985 14.4999 28.2992 12.5329 28.2992 11.9546C28.2992 9.02407 27.1407 5.69333 25.1315 3.70694C24.8852 3.46338 24.7081 3.27211 24.4584 3.03177L23.6786 2.37347C22.0943 1.17848 19.5341 0 17.4232 0C15.5519 0 14.0445 0.0484363 12.3581 0.867357C12.006 1.03835 11.6824 1.26175 11.311 1.34827L11.311 1.34827Z" fill="#BCBEBE"/>
</svg>
