<svg width="17" height="22" viewBox="0 0 17 22" fill="none" xmlns="http://www.w3.org/2000/svg">
<path d="M15.8345 11.5546L1.7025 20.9759C1.60211 21.0427 1.48548 21.081 1.36503 21.0868C1.24457 21.0925 1.12481 21.0655 1.0185 21.0086C0.912191 20.9517 0.823309 20.867 0.761322 20.7636C0.699335 20.6601 0.666566 20.5418 0.666504 20.4212V1.57855C0.666566 1.45796 0.699335 1.33965 0.761322 1.23621C0.823309 1.13277 0.912191 1.04808 1.0185 0.991166C1.12481 0.934248 1.24457 0.907231 1.36503 0.912993C1.48548 0.918755 1.60211 0.957081 1.7025 1.02389L15.8345 10.4452C15.9258 10.5061 16.0007 10.5886 16.0525 10.6853C16.1042 10.7821 16.1313 10.8901 16.1313 10.9999C16.1313 11.1096 16.1042 11.2177 16.0525 11.3144C16.0007 11.4112 15.9258 11.4937 15.8345 11.5546Z" fill="#1A1A1A"/>
</svg>
